<svg width="493" height="616" viewBox="0 0 493 616" fill="none" xmlns="http://www.w3.org/2000/svg">
<circle cx="231" cy="308" r="197" fill="#5B99C2"/>
<circle cx="230.5" cy="307.5" r="158.5" fill="#1A4870"/>
<path d="M91.6704 254V139.588H122.731V184.28H163.848V139.588H194.909V254H163.848V209.308H122.731V254H91.6704ZM251.221 255.564C242.059 255.564 234.163 253.814 227.534 250.313C220.942 246.775 215.858 241.71 212.283 235.118C208.745 228.488 206.976 220.555 206.976 211.319C206.976 202.455 208.763 194.709 212.339 188.079C215.914 181.45 220.961 176.292 227.478 172.605C233.996 168.918 241.687 167.074 250.55 167.074C257.031 167.074 262.897 168.08 268.148 170.091C273.399 172.102 277.887 175.025 281.611 178.862C285.336 182.66 288.204 187.279 290.215 192.716C292.226 198.154 293.231 204.28 293.231 211.096V218.246H216.585V201.263H264.852C264.815 198.805 264.182 196.645 262.953 194.783C261.761 192.884 260.141 191.413 258.092 190.37C256.081 189.29 253.791 188.75 251.221 188.75C248.726 188.75 246.435 189.29 244.349 190.37C242.264 191.413 240.588 192.865 239.322 194.727C238.093 196.589 237.441 198.768 237.366 201.263V219.587C237.366 222.343 237.944 224.801 239.098 226.961C240.253 229.121 241.91 230.816 244.07 232.045C246.23 233.274 248.837 233.889 251.891 233.889C254.014 233.889 255.951 233.591 257.701 232.995C259.489 232.399 261.016 231.542 262.282 230.425C263.548 229.27 264.48 227.892 265.075 226.291H293.231C292.263 232.25 289.973 237.427 286.36 241.821C282.747 246.179 277.962 249.568 272.003 251.989C266.081 254.372 259.154 255.564 251.221 255.564ZM322.435 286.178C318.897 286.178 315.526 285.899 312.323 285.34C309.12 284.819 306.308 284.093 303.888 283.162L310.591 261.262C313.124 262.156 315.433 262.734 317.519 262.994C319.642 263.255 321.448 263.106 322.938 262.547C324.465 261.989 325.563 260.927 326.234 259.363L326.904 257.799L296.737 168.191H328.915L342.77 227.632H343.664L357.741 168.191H390.143L358.859 261.151C357.295 265.881 355.023 270.126 352.043 273.888C349.101 277.687 345.228 280.685 340.423 282.882C335.619 285.08 329.623 286.178 322.435 286.178Z" fill="white"/>
<path d="M38.7313 381.515C33.2566 381.515 28.4149 380.622 24.2064 378.834C20.0352 377.009 16.7578 374.253 14.3742 370.566C11.9906 366.879 10.7988 362.186 10.7988 356.488C10.7988 351.795 11.5996 347.792 13.201 344.477C14.8025 341.125 17.0371 338.388 19.9048 336.265C22.7726 334.142 26.1058 332.522 29.9047 331.405C33.7407 330.287 37.8747 329.561 42.3067 329.226C47.1111 328.853 50.9658 328.406 53.8707 327.885C56.813 327.326 58.9358 326.563 60.2394 325.595C61.5429 324.589 62.1946 323.267 62.1946 321.628V321.405C62.1946 319.17 61.338 317.457 59.6248 316.265C57.9117 315.073 55.7143 314.477 53.0328 314.477C50.0906 314.477 47.6884 315.129 45.8262 316.433C44.0013 317.699 42.9026 319.654 42.5302 322.299H14.1507C14.5232 317.084 16.1805 312.28 19.1227 307.885C22.1022 303.453 26.441 299.915 32.1393 297.271C37.8375 294.589 44.951 293.249 53.4797 293.249C59.6248 293.249 65.1369 293.975 70.0157 295.427C74.8946 296.843 79.0473 298.835 82.4736 301.405C85.9 303.938 88.5071 306.917 90.2947 310.343C92.1197 313.733 93.0321 317.42 93.0321 321.405V380.175H64.2058V368.108H63.5354C61.8222 371.311 59.7366 373.899 57.2785 375.873C54.8577 377.847 52.0831 379.281 48.9546 380.175C45.8634 381.069 42.4557 381.515 38.7313 381.515ZM48.787 362.074C51.1334 362.074 53.3307 361.59 55.3791 360.622C57.4647 359.654 59.1593 358.257 60.4628 356.432C61.7663 354.607 62.4181 352.391 62.4181 349.784V342.633C61.5987 342.969 60.7235 343.285 59.7924 343.583C58.8986 343.881 57.9303 344.16 56.8875 344.421C55.8819 344.682 54.8018 344.924 53.6473 345.147C52.53 345.371 51.3568 345.576 50.1278 345.762C47.7442 346.134 45.7889 346.749 44.262 347.605C42.7722 348.425 41.6549 349.449 40.9101 350.678C40.2024 351.87 39.8486 353.21 39.8486 354.7C39.8486 357.084 40.6866 358.909 42.3626 360.175C44.0385 361.441 46.18 362.074 48.787 362.074ZM138.827 381.292C132.72 381.292 127.096 379.691 121.956 376.488C116.854 373.285 112.757 368.424 109.666 361.907C106.612 355.389 105.085 347.177 105.085 337.27C105.085 326.917 106.686 318.5 109.889 312.019C113.13 305.539 117.301 300.79 122.403 297.774C127.543 294.757 132.943 293.249 138.604 293.249C142.85 293.249 146.574 293.994 149.777 295.483C152.98 296.936 155.661 298.891 157.822 301.349C159.982 303.77 161.62 306.433 162.738 309.338H163.185V265.763H194.022V380.175H163.408V366.097H162.738C161.546 369.002 159.833 371.609 157.598 373.918C155.401 376.19 152.719 377.996 149.554 379.337C146.425 380.64 142.85 381.292 138.827 381.292ZM150.224 357.605C153.054 357.605 155.475 356.786 157.486 355.147C159.535 353.471 161.099 351.125 162.179 348.108C163.296 345.054 163.855 341.442 163.855 337.27C163.855 333.025 163.296 329.393 162.179 326.377C161.099 323.323 159.535 320.995 157.486 319.394C155.475 317.755 153.054 316.935 150.224 316.935C147.393 316.935 144.973 317.755 142.961 319.394C140.988 320.995 139.461 323.323 138.381 326.377C137.338 329.393 136.816 333.025 136.816 337.27C136.816 341.516 137.338 345.166 138.381 348.22C139.461 351.237 140.988 353.564 142.961 355.203C144.973 356.804 147.393 357.605 150.224 357.605ZM240.222 381.292C234.115 381.292 228.491 379.691 223.351 376.488C218.249 373.285 214.152 368.424 211.061 361.907C208.007 355.389 206.48 347.177 206.48 337.27C206.48 326.917 208.081 318.5 211.284 312.019C214.525 305.539 218.696 300.79 223.798 297.774C228.938 294.757 234.338 293.249 239.999 293.249C244.245 293.249 247.969 293.994 251.172 295.483C254.375 296.936 257.056 298.891 259.217 301.349C261.377 303.77 263.015 306.433 264.133 309.338H264.58V265.763H295.417V380.175H264.803V366.097H264.133C262.941 369.002 261.228 371.609 258.993 373.918C256.796 376.19 254.114 377.996 250.949 379.337C247.82 380.64 244.245 381.292 240.222 381.292ZM251.619 357.605C254.449 357.605 256.87 356.786 258.881 355.147C260.93 353.471 262.494 351.125 263.574 348.108C264.691 345.054 265.25 341.442 265.25 337.27C265.25 333.025 264.691 329.393 263.574 326.377C262.494 323.323 260.93 320.995 258.881 319.394C256.87 317.755 254.449 316.935 251.619 316.935C248.788 316.935 246.368 317.755 244.356 319.394C242.383 320.995 240.856 323.323 239.776 326.377C238.733 329.393 238.211 333.025 238.211 337.27C238.211 341.516 238.733 345.166 239.776 348.22C240.856 351.237 242.383 353.564 244.356 355.203C246.368 356.804 248.788 357.605 251.619 357.605Z" fill="white"/>
<path d="M163.73 476.795V390.986H193.003V407.299H193.897C195.685 401.936 198.739 397.69 203.059 394.562C207.379 391.433 212.519 389.869 218.478 389.869C224.511 389.869 229.707 391.47 234.064 394.673C238.422 397.839 241.047 402.048 241.941 407.299H242.835C244.287 402.048 247.379 397.839 252.108 394.673C256.838 391.47 262.388 389.869 268.756 389.869C276.987 389.869 283.654 392.513 288.756 397.802C293.895 403.09 296.465 410.129 296.465 418.919V476.795H265.628V426.74C265.628 422.978 264.678 420.036 262.779 417.913C260.879 415.753 258.328 414.673 255.125 414.673C251.959 414.673 249.446 415.753 247.583 417.913C245.758 420.036 244.846 422.978 244.846 426.74V476.795H215.349V426.74C215.349 422.978 214.4 420.036 212.5 417.913C210.601 415.753 208.05 414.673 204.847 414.673C202.724 414.673 200.899 415.157 199.372 416.126C197.845 417.094 196.653 418.49 195.796 420.315C194.977 422.103 194.567 424.245 194.567 426.74V476.795H163.73ZM352.791 478.359C343.629 478.359 335.734 476.609 329.104 473.108C322.512 469.57 317.429 464.505 313.853 457.913C310.315 451.283 308.546 443.35 308.546 434.114C308.546 425.25 310.334 417.504 313.909 410.874C317.484 404.245 322.531 399.087 329.049 395.4C335.566 391.713 343.257 389.869 352.121 389.869C358.601 389.869 364.467 390.875 369.718 392.886C374.97 394.897 379.457 397.82 383.182 401.656C386.906 405.455 389.774 410.073 391.785 415.511C393.796 420.949 394.802 427.075 394.802 433.891V441.041H318.155V424.058H366.422C366.385 421.6 365.752 419.44 364.523 417.578C363.331 415.679 361.711 414.207 359.663 413.165C357.651 412.085 355.361 411.545 352.791 411.545C350.296 411.545 348.005 412.085 345.92 413.165C343.834 414.207 342.158 415.66 340.892 417.522C339.663 419.384 339.011 421.563 338.937 424.058V442.382C338.937 445.138 339.514 447.596 340.668 449.756C341.823 451.916 343.48 453.611 345.64 454.84C347.801 456.069 350.408 456.684 353.462 456.684C355.584 456.684 357.521 456.386 359.272 455.79C361.059 455.194 362.586 454.337 363.852 453.22C365.119 452.065 366.05 450.687 366.646 449.086H394.802C393.833 455.045 391.543 460.222 387.93 464.616C384.318 468.974 379.532 472.363 373.573 474.784C367.651 477.167 360.724 478.359 352.791 478.359ZM443.139 362.383L440.234 441.041H414.759L411.854 362.383H443.139ZM427.497 478.583C423.176 478.583 419.471 477.074 416.38 474.058C413.326 471.004 411.817 467.298 411.854 462.94C411.817 458.695 413.326 455.063 416.38 452.047C419.471 449.03 423.176 447.522 427.497 447.522C431.593 447.522 435.206 449.03 438.334 452.047C441.5 455.063 443.102 458.695 443.139 462.94C443.102 465.845 442.338 468.49 440.848 470.873C439.396 473.22 437.496 475.1 435.15 476.516C432.804 477.894 430.253 478.583 427.497 478.583Z" fill="white"/>
</svg>
